<svg xmlns="http://www.w3.org/2000/svg" xmlns:xlink="http://www.w3.org/1999/xlink" width="500" zoomAndPan="magnify" viewBox="0 0 375 374.999991" height="500" preserveAspectRatio="xMidYMid meet" version="1.0"><defs><clipPath id="ba0dde3752"><path d="M 0 73 L 301 73 L 301 373.5 L 0 373.5 Z M 0 73 " clip-rule="nonzero"/></clipPath></defs><path fill="#3871c1" d="M 197.457031 299.390625 C 191.359375 293.296875 191.359375 283.40625 197.457031 277.3125 C 203.558594 271.210938 213.453125 271.210938 219.546875 277.304688 C 225.652344 283.40625 225.652344 293.296875 219.546875 299.398438 C 213.453125 305.492188 203.558594 305.492188 197.457031 299.390625 Z M 225.761719 271.09375 C 216.230469 261.570312 200.78125 261.566406 191.246094 271.101562 C 183.03125 279.3125 181.898438 291.921875 187.847656 301.347656 L 174.167969 315.027344 L 147.320312 315 L 132.039062 314.988281 L 121.234375 325.789062 L 136.511719 325.808594 L 178.636719 325.84375 L 195.496094 308.992188 C 204.925781 314.953125 217.542969 313.8125 225.753906 305.605469 C 235.289062 296.070312 235.300781 280.628906 225.761719 271.09375 " fill-opacity="1" fill-rule="nonzero"/><path fill="#3871c1" d="M 113.761719 128.4375 C 119.859375 122.339844 129.753906 122.339844 135.855469 128.441406 C 141.957031 134.542969 141.957031 144.429688 135.855469 150.53125 C 129.753906 156.628906 119.863281 156.628906 113.761719 150.53125 C 107.660156 144.429688 107.660156 134.539062 113.761719 128.4375 Z M 78 193.9375 L 111.808594 160.136719 C 121.238281 166.082031 133.851562 164.949219 142.066406 156.738281 C 151.597656 147.210938 151.597656 131.761719 142.066406 122.234375 C 132.535156 112.707031 117.082031 112.707031 107.550781 122.234375 C 99.335938 130.449219 98.203125 143.066406 104.15625 152.496094 L 67.179688 189.464844 L 67.035156 261.308594 L 51.253906 277.089844 C 53.015625 280.328125 54.949219 283.496094 57.046875 286.589844 L 77.855469 265.785156 L 78 193.9375 " fill-opacity="1" fill-rule="nonzero"/><path fill="#3871c1" d="M 293.546875 153.519531 C 287.449219 147.421875 287.449219 137.53125 293.546875 131.429688 C 299.648438 125.332031 309.539062 125.332031 315.636719 131.429688 C 321.742188 137.535156 321.742188 147.421875 315.644531 153.519531 C 309.542969 159.621094 299.648438 159.621094 293.546875 153.519531 Z M 321.851562 125.222656 C 312.320312 115.695312 296.867188 115.695312 287.335938 125.222656 C 279.121094 133.433594 277.988281 146.042969 283.9375 155.472656 L 196.890625 242.496094 L 124.746094 242.429688 L 67.46875 299.695312 C 68.492188 300.804688 69.539062 301.902344 70.617188 302.980469 C 72.105469 304.46875 73.621094 305.898438 75.167969 307.285156 L 129.222656 253.246094 L 201.367188 253.316406 L 291.582031 163.121094 C 301.011719 169.074219 313.632812 167.945312 321.851562 159.726562 C 331.378906 150.199219 331.378906 134.75 321.851562 125.222656 " fill-opacity="1" fill-rule="nonzero"/><path fill="#3871c1" d="M 136.511719 325.808594 L 113.359375 348.953125 C 111.808594 347.574219 110.289062 346.140625 108.800781 344.652344 C 107.726562 343.578125 106.6875 342.476562 105.660156 341.363281 L 121.234375 325.789062 L 136.511719 325.808594 " fill-opacity="1" fill-rule="nonzero"/><path fill="#3871c1" d="M 147.320312 315 L 136.511719 325.808594 L 121.234375 325.789062 L 132.039062 314.988281 L 147.320312 315 " fill-opacity="1" fill-rule="nonzero"/><path fill="#3871c1" d="M 337.066406 37.820312 C 330.964844 31.71875 330.964844 21.828125 337.066406 15.730469 C 343.164062 9.632812 353.058594 9.632812 359.15625 15.730469 C 365.257812 21.828125 365.257812 31.722656 359.160156 37.820312 C 353.058594 43.917969 343.167969 43.917969 337.066406 37.820312 Z M 246.484375 28.644531 C 252.585938 22.546875 262.476562 22.546875 268.578125 28.644531 C 274.683594 34.746094 274.683594 44.636719 268.582031 50.734375 C 262.480469 56.832031 252.585938 56.832031 246.484375 50.730469 C 240.382812 44.632812 240.382812 34.746094 246.484375 28.644531 Z M 365.367188 9.519531 C 355.835938 -0.00390625 340.382812 -0.00390625 330.851562 9.519531 C 322.640625 17.734375 321.507812 30.34375 327.453125 39.773438 L 152.703125 214.480469 L 129.195312 214.457031 L 168.441406 175.222656 L 168.40625 136.445312 L 244.527344 60.339844 C 253.960938 66.289062 266.574219 65.15625 274.789062 56.941406 C 284.320312 47.414062 284.316406 31.964844 274.785156 22.4375 C 265.257812 12.910156 249.804688 12.90625 240.277344 22.4375 C 232.058594 30.648438 230.925781 43.257812 236.875 52.6875 L 236.882812 52.691406 L 157.582031 131.96875 L 157.621094 170.75 L 113.914062 214.441406 L 83.9375 244.414062 L 83.949219 259.691406 L 118.390625 225.261719 L 157.175781 225.296875 L 335.097656 47.421875 C 344.53125 53.375 357.148438 52.242188 365.367188 44.027344 C 374.898438 34.5 374.898438 19.050781 365.367188 9.519531 " fill-opacity="1" fill-rule="nonzero"/><g clip-path="url(#ba0dde3752)"><path fill="#3871c1" d="M 144.40625 271.050781 C 142.082031 273.378906 140.566406 276.199219 139.828125 279.171875 L 126.828125 279.164062 L 88.460938 317.519531 C 91.59375 319.582031 94.808594 321.46875 98.089844 323.183594 L 131.300781 289.980469 L 140.574219 289.988281 C 141.429688 292.089844 142.703125 294.054688 144.40625 295.753906 C 151.230469 302.574219 162.289062 302.574219 169.113281 295.753906 C 175.933594 288.933594 175.933594 277.875 169.113281 271.050781 C 162.289062 264.234375 151.230469 264.234375 144.40625 271.050781 Z M 299.179688 203.273438 L 280.082031 196.484375 C 279.285156 192.59375 278.308594 188.738281 277.160156 184.917969 L 265.65625 196.421875 C 274.523438 234.804688 264.003906 276.761719 234.085938 306.671875 C 187.921875 352.820312 113.085938 352.820312 66.925781 306.671875 C 20.765625 260.527344 20.765625 185.703125 66.925781 139.554688 C 96.203125 110.285156 137.015625 99.589844 174.730469 107.445312 L 186.375 95.808594 C 183.320312 94.949219 180.242188 94.203125 177.140625 93.570312 L 170.351562 74.476562 C 157.183594 72.730469 143.828125 72.730469 130.660156 74.476562 L 123.867188 93.570312 C 107.667969 96.882812 91.96875 103.246094 77.695312 112.671875 L 59.398438 103.976562 C 54.199219 107.957031 49.199219 112.320312 44.441406 117.078125 C 39.6875 121.832031 35.320312 126.832031 31.339844 132.03125 L 40.035156 150.320312 C 30.605469 164.589844 24.242188 180.285156 20.929688 196.484375 L 1.832031 203.273438 C 0.0859375 216.4375 0.0859375 229.789062 1.832031 242.953125 L 20.929688 249.742188 C 24.242188 265.9375 30.605469 281.636719 40.035156 295.90625 L 31.339844 314.199219 C 35.320312 319.398438 39.6875 324.394531 44.441406 329.148438 C 49.199219 333.90625 54.199219 338.269531 59.398438 342.25 L 77.695312 333.554688 C 91.96875 342.984375 107.667969 349.34375 123.867188 352.65625 L 130.660156 371.75 C 143.828125 373.496094 157.183594 373.496094 170.351562 371.75 L 177.144531 352.65625 C 193.34375 349.34375 209.042969 342.984375 223.316406 333.554688 L 241.613281 342.25 C 246.8125 338.269531 251.8125 333.902344 256.566406 329.148438 C 261.324219 324.394531 265.6875 319.398438 269.671875 314.199219 L 260.972656 295.90625 C 270.402344 281.636719 276.769531 265.9375 280.082031 249.742188 L 299.179688 242.953125 C 300.929688 229.789062 300.929688 216.4375 299.179688 203.273438 " fill-opacity="1" fill-rule="nonzero"/></g></svg>